# xmcd CD database file
#
# Track frame offsets:
#	150
#	21687
#	44150
#
# Disc length: 876 seconds
#
# Revision: 7
# Processed by: cddbd v1.5PL3 Copyright (c) Steve Scherf et al.
# Submitted via: CDex 1.40Release
#
DISCID=2a036a03
DTITLE=SUGIZO＆THE SPANK YOUR JUICE - SUPER LOVE
DYEAR=2002
DGENRE=Unknown
TTITLE0=SUPER LOVE
TTITLE1=怒FUNK
TTITLE2=EXORCISM
EXTD=YEAR: 2002
EXTT0=
EXTT1=
EXTT2=
PLAYORDER=
